<svg width="85" height="85" viewBox="0 0 85 85" fill="none" xmlns="http://www.w3.org/2000/svg">
<rect width="85" height="85" rx="42.5" fill="black"/>
<path d="M19.7485 56.1822L21.833 57.3857L45.0548 17.1656L42.9703 15.9621L19.7485 56.1822Z" fill="#E535AB"/>
<path d="M65.7145 52.969H19.271V55.376H65.7145V52.969Z" fill="#E535AB"/>
<path d="M20.19 54.3212L43.4204 67.7337L44.6239 65.6493L21.3935 52.2368L20.19 54.3212Z" fill="#E535AB"/>
<path d="M40.3706 19.3648L63.6011 32.7773L64.8046 30.6928L41.5741 17.2803L40.3706 19.3648Z" fill="#E535AB"/>
<path d="M20.1969 30.6836L21.4004 32.7681L44.6308 19.3556L43.4273 17.2711L20.1969 30.6836Z" fill="#E535AB"/>
<path d="M39.9506 17.1661L63.1724 57.3861L65.2568 56.1826L42.0351 15.9626L39.9506 17.1661Z" fill="#E535AB"/>
<path d="M23.5198 29.0875H21.1128V55.9125H23.5198V29.0875Z" fill="#E535AB"/>
<path d="M63.8875 29.0875H61.4805V55.9125H63.8875V29.0875Z" fill="#E535AB"/>
<path d="M41.9595 64.8941L43.0107 66.7149L63.215 55.0496L62.1637 53.2289L41.9595 64.8941Z" fill="#E535AB"/>
<path d="M67.0776 56.6955C65.6856 59.117 62.5826 59.9435 60.1611 58.5515C57.7396 57.1595 56.9131 54.0565 58.3051 51.635C59.6971 49.2135 62.8001 48.387 65.2216 49.779C67.6576 51.1855 68.4841 54.274 67.0776 56.6955Z" fill="#E535AB"/>
<path d="M26.6806 33.365C25.2886 35.7865 22.1856 36.613 19.7641 35.221C17.3426 33.829 16.5161 30.726 17.9081 28.3045C19.3001 25.883 22.4031 25.0565 24.8246 26.4485C27.2461 27.855 28.0726 30.9435 26.6806 33.365Z" fill="#E535AB"/>
<path d="M17.9228 56.6955C16.5308 54.274 17.3573 51.1855 19.7788 49.779C22.2003 48.387 25.2888 49.2135 26.6953 51.635C28.0873 54.0565 27.2608 57.145 24.8393 58.5515C22.4033 59.9435 19.3148 59.117 17.9228 56.6955Z" fill="#E535AB"/>
<path d="M58.3198 33.365C56.9278 30.9435 57.7543 27.855 60.1758 26.4485C62.5973 25.0565 65.6858 25.883 67.0923 28.3045C68.4843 30.726 67.6578 33.8145 65.2362 35.221C62.8148 36.613 59.7118 35.7865 58.3198 33.365Z" fill="#E535AB"/>
<path d="M42.5 70.891C39.7015 70.891 37.4395 68.629 37.4395 65.8305C37.4395 63.032 39.7015 60.77 42.5 60.77C45.2985 60.77 47.5605 63.032 47.5605 65.8305C47.5605 68.6145 45.2985 70.891 42.5 70.891Z" fill="#E535AB"/>
<path d="M42.5 24.23C39.7015 24.23 37.4395 21.968 37.4395 19.1695C37.4395 16.371 39.7015 14.109 42.5 14.109C45.2985 14.109 47.5605 16.371 47.5605 19.1695C47.5605 21.968 45.2985 24.23 42.5 24.23Z" fill="#E535AB"/>
</svg>
