<svg width="85" height="85" viewBox="0 0 85 85" fill="none" xmlns="http://www.w3.org/2000/svg">
<rect width="85" height="85" rx="42.5" fill="#F7DF1E"/>
<g clip-path="url(#clip0_82_24)">
<path d="M72.5 12.5H12.5V72.5H72.5V12.5Z" fill="#F7DF1E"/>
<path d="M57.5067 61.6476C58.7152 63.6209 60.2876 65.0714 63.0686 65.0714C65.4048 65.0714 66.8971 63.9038 66.8971 62.2905C66.8971 60.3571 65.3638 59.6724 62.7924 58.5476L61.3829 57.9429C57.3143 56.2095 54.6114 54.0381 54.6114 49.4476C54.6114 45.219 57.8333 42 62.8686 42C66.4533 42 69.0305 43.2476 70.8876 46.5143L66.4971 49.3333C65.5305 47.6 64.4876 46.9171 62.8686 46.9171C61.2171 46.9171 60.1705 47.9648 60.1705 49.3333C60.1705 51.0248 61.2181 51.7095 63.6371 52.7571L65.0467 53.3609C69.8371 55.4152 72.5419 57.5095 72.5419 62.2181C72.5419 67.2943 68.5543 70.0752 63.199 70.0752C57.9629 70.0752 54.58 67.58 52.9248 64.3095L57.5067 61.6476ZM37.5895 62.1362C38.4752 63.7076 39.281 65.0362 41.2181 65.0362C43.0705 65.0362 44.239 64.3114 44.239 61.4933V42.3219H49.8771V61.5695C49.8771 67.4076 46.4543 70.0648 41.4581 70.0648C36.9438 70.0648 34.3295 67.7286 33 64.9148L37.5895 62.1362Z" fill="black"/>
</g>
<defs>
<clipPath id="clip0_82_24">
<rect width="60" height="60" fill="white" transform="translate(12.5 12.5)"/>
</clipPath>
</defs>
</svg>
