<svg width="74" height="74" viewBox="0 0 74 74" fill="none" xmlns="http://www.w3.org/2000/svg">
<g filter="url(#filter0_d_15_320)">
<rect x="17" y="15" width="40" height="40" rx="10" fill="black"/>
<path d="M46.384 26.592C46.384 27.072 46.28 27.432 46.072 27.672C45.88 27.912 45.56 28.032 45.112 28.032C45.08 28.368 45.008 28.952 44.896 29.784C44.736 30.904 44.648 31.528 44.632 31.656C43.208 42.264 40.24 47.568 35.728 47.568C34.4 47.568 33.36 47.192 32.608 46.44C31.872 45.688 31.504 44.744 31.504 43.608C31.504 41.576 32.368 39.784 34.096 38.232C35.824 36.664 38.096 35.368 40.912 34.344C41.088 33.208 41.224 32.192 41.32 31.296L41.752 27.672C40.792 27.576 39.896 27.528 39.064 27.528C36.84 27.528 35.2 27.744 34.144 28.176C33.088 28.608 32.56 29.312 32.56 30.288C32.56 30.768 32.72 31.288 33.04 31.848C33.136 32.008 33.184 32.176 33.184 32.352C33.184 32.688 33.008 32.992 32.656 33.264C32.32 33.52 31.952 33.648 31.552 33.648C31.04 33.648 30.648 33.432 30.376 33C29.928 32.264 29.704 31.408 29.704 30.432C29.704 26.592 33.064 24.672 39.784 24.672C41.736 24.672 43.48 24.864 45.016 25.248C45.928 25.472 46.384 25.92 46.384 26.592ZM36.04 45C36.824 45 37.608 44.408 38.392 43.224C39.176 42.04 39.864 39.968 40.456 37.008C36.552 38.72 34.6 40.816 34.6 43.296C34.6 43.84 34.728 44.264 34.984 44.568C35.24 44.856 35.592 45 36.04 45Z" fill="white"/>
</g>
<defs>
<filter id="filter0_d_15_320" x="0" y="0" width="74" height="74" filterUnits="userSpaceOnUse" color-interpolation-filters="sRGB">
<feFlood flood-opacity="0" result="BackgroundImageFix"/>
<feColorMatrix in="SourceAlpha" type="matrix" values="0 0 0 0 0 0 0 0 0 0 0 0 0 0 0 0 0 0 127 0" result="hardAlpha"/>
<feMorphology radius="2" operator="dilate" in="SourceAlpha" result="effect1_dropShadow_15_320"/>
<feOffset dy="2"/>
<feGaussianBlur stdDeviation="7.5"/>
<feComposite in2="hardAlpha" operator="out"/>
<feColorMatrix type="matrix" values="0 0 0 0 0 0 0 0 0 0 0 0 0 0 0 0 0 0 0.2 0"/>
<feBlend mode="normal" in2="BackgroundImageFix" result="effect1_dropShadow_15_320"/>
<feBlend mode="normal" in="SourceGraphic" in2="effect1_dropShadow_15_320" result="shape"/>
</filter>
</defs>
</svg>
