<svg width="85" height="85" viewBox="0 0 85 85" fill="none" xmlns="http://www.w3.org/2000/svg">
<g clip-path="url(#clip0_82_37)">
<rect width="85" height="85" rx="42.5" fill="white"/>
<path d="M52.7057 30.5001C52.6502 30.5002 52.5957 30.5167 52.5476 30.5479C52.4997 30.5797 52.4599 30.6252 52.4322 30.6797C52.4044 30.7343 52.3897 30.7961 52.3895 30.859V40.0113C52.3895 40.1011 52.3525 40.1815 52.284 40.2266C52.2503 40.2488 52.2121 40.2605 52.1732 40.2605C52.1343 40.2605 52.0961 40.2488 52.0625 40.2266L50.7446 39.3653C50.6485 39.3022 50.5394 39.2689 50.4283 39.2689C50.3172 39.2689 50.2081 39.3022 50.112 39.3653L44.8511 42.8107C44.6544 42.9394 44.5346 43.1872 44.5346 43.4447V50.3358C44.5344 50.4619 44.5636 50.5858 44.6191 50.695C44.6747 50.8042 44.7546 50.8949 44.8509 50.9578L50.112 54.4034C50.2081 54.4667 50.3172 54.5 50.4283 54.5C50.5394 54.5 50.6485 54.4667 50.7446 54.4034L56.0057 50.9578C56.102 50.8949 56.1819 50.8042 56.2375 50.695C56.293 50.5858 56.3222 50.4619 56.322 50.3358V33.156C56.322 32.8946 56.1963 32.6494 55.9953 32.522L52.8639 30.5358C52.8147 30.5047 52.7602 30.4994 52.7057 30.5001ZM18.8619 39.1019C18.7615 39.1066 18.6673 39.1263 18.5771 39.1857L13.3162 42.6311C13.2199 42.694 13.1398 42.7846 13.0843 42.8938C13.0288 43.0031 12.9997 43.1271 13 43.2532L13.0107 52.5013C13.0107 52.63 13.0693 52.7494 13.169 52.8123C13.2667 52.8788 13.3879 52.8788 13.4852 52.8123L16.6059 50.7784C16.8038 50.6454 16.9327 50.4132 16.9327 50.1565V45.8375C16.9327 45.5797 17.0521 45.3436 17.2492 45.2156L18.5777 44.3423C18.6737 44.2789 18.7829 44.2459 18.8939 44.2465C19.0051 44.2458 19.1143 44.2788 19.2103 44.3423L20.5382 45.2151C20.735 45.3431 20.8544 45.5796 20.8544 45.837V50.1558C20.8544 50.4129 20.9863 50.6464 21.1812 50.7777L24.302 52.8116C24.4002 52.8781 24.5211 52.8781 24.6182 52.8116C24.7149 52.7484 24.7765 52.6292 24.7765 52.5007L24.787 43.2528C24.7876 43.1267 24.7587 43.0026 24.7031 42.8932C24.6476 42.7839 24.5674 42.6934 24.4708 42.6308L19.2099 39.1855C19.1209 39.1263 19.0263 39.1064 18.9252 39.1017L18.8619 39.1019ZM66.1377 39.1857C66.0266 39.1854 65.9175 39.2184 65.8213 39.2815L60.5603 42.7271C60.3639 42.8559 60.2438 43.0916 60.2438 43.349V50.24C60.2438 50.499 60.3724 50.7338 60.5705 50.8619L65.7894 54.2373C65.9821 54.362 66.2173 54.3715 66.4114 54.2489L69.5744 52.2509C69.6748 52.1877 69.7426 52.0697 69.7429 51.94C69.7432 51.8103 69.6839 51.6936 69.5847 51.6291L64.2918 48.1835C64.1927 48.1193 64.1233 47.9894 64.1233 47.8604V45.7056C64.1233 45.5769 64.1936 45.4588 64.2918 45.3947L65.9365 44.3179C66.0344 44.2537 66.1546 44.2537 66.253 44.3179L67.8985 45.3947C67.9466 45.4261 67.9866 45.4714 68.0144 45.526C68.0422 45.5806 68.0567 45.6426 68.0566 45.7056V47.4045C68.0564 47.4675 68.071 47.5295 68.0988 47.5841C68.1265 47.6387 68.1665 47.684 68.2147 47.7154C68.3133 47.7799 68.4327 47.7802 68.5312 47.7154L71.6835 45.6341C71.8791 45.5051 72 45.2688 72 45.0122V43.3495C72 43.2234 71.9708 43.0995 71.9152 42.9903C71.8597 42.8812 71.7798 42.7905 71.6836 42.7274L66.4542 39.2818C66.3581 39.2187 66.2488 39.1853 66.1377 39.1857ZM50.4071 44.3303C50.4366 44.3302 50.4656 44.3383 50.4915 44.3541L52.2944 45.5385C52.3433 45.5706 52.3788 45.6299 52.3788 45.694V48.0627C52.3788 48.1271 52.3436 48.1863 52.2944 48.2182L50.4915 49.4026C50.4424 49.4342 50.3825 49.4342 50.3333 49.4026L48.5304 48.2182C48.4814 48.1861 48.446 48.1268 48.446 48.0627V45.6936C48.446 45.6294 48.4815 45.5706 48.5304 45.5382L50.3333 44.3539C50.3579 44.3378 50.3796 44.3303 50.4071 44.3303Z" fill="#404137"/>
<path d="M34.6663 39.1496C34.5552 39.1494 34.446 39.1824 34.3498 39.2454L29.0887 42.679C28.8921 42.8077 28.7725 43.0556 28.7725 43.313V50.2041C28.7722 50.3302 28.8013 50.4541 28.8568 50.5633C28.9124 50.6725 28.9924 50.7631 29.0887 50.8259L34.3498 54.2715C34.4459 54.3348 34.555 54.3681 34.6661 54.3681C34.7772 54.3681 34.8863 54.3348 34.9824 54.2715L40.2434 50.8259C40.3397 50.763 40.4197 50.6724 40.4752 50.5631C40.5308 50.4539 40.56 50.33 40.5598 50.2039V43.3129C40.5598 43.0551 40.4402 42.8074 40.2433 42.6789L34.9822 39.2452C34.8861 39.182 34.7774 39.1491 34.6663 39.1496ZM66.1274 45.2991C66.1065 45.2991 66.0832 45.2991 66.0641 45.3107L65.052 45.9808C65.0332 45.9927 65.0174 46.01 65.0063 46.031C64.9952 46.0519 64.9891 46.0759 64.9887 46.1003V47.4164C64.9887 47.466 65.0141 47.5112 65.052 47.5361L66.0641 48.1941C66.0815 48.2063 66.1016 48.2128 66.122 48.2128C66.1425 48.2128 66.1625 48.2063 66.1799 48.1941L67.192 47.5361C67.2295 47.5117 67.2553 47.466 67.2553 47.4164V46.1003C67.2553 46.0508 67.2297 46.0056 67.192 45.9806L66.1799 45.3105C66.1612 45.2979 66.1486 45.2991 66.1274 45.2991Z" fill="#83CD29"/>
</g>
<defs>
<clipPath id="clip0_82_37">
<rect width="85" height="85" rx="42.5" fill="white"/>
</clipPath>
</defs>
</svg>
