<svg width="85" height="85" viewBox="0 0 85 85" fill="none" xmlns="http://www.w3.org/2000/svg">
<rect width="85" height="85" rx="42.5" fill="black"/>
<path d="M42.3053 15.5C28.5968 15.5 29.4528 21.476 29.4528 21.476L29.4681 27.667H42.5499V29.5259H24.2721C24.2721 29.5259 15.5 28.5258 15.5 42.4303C15.5 56.3348 23.1565 55.8417 23.1565 55.8417H27.7259V49.3895C27.7259 49.3895 27.4796 41.6929 35.2602 41.6929C43.0407 41.6929 48.2349 41.6929 48.2349 41.6929C48.2349 41.6929 55.5246 41.8114 55.5246 34.6108C55.5246 27.4103 55.5246 22.705 55.5246 22.705C55.5246 22.705 56.6314 15.5 42.3053 15.5ZM35.092 19.6632C36.3936 19.6632 37.4455 20.7207 37.4455 22.029C37.4455 23.3374 36.3936 24.3948 35.092 24.3948C33.7905 24.3948 32.7386 23.3374 32.7386 22.029C32.7386 20.7207 33.7905 19.6632 35.092 19.6632Z" fill="url(#paint0_linear_82_40)"/>
<path d="M42.6947 69.5C56.4032 69.5 55.5472 63.524 55.5472 63.524L55.5319 57.333H42.4501V55.4741H60.7279C60.7279 55.4741 69.5 56.4742 69.5 42.5697C69.5 28.6652 61.8435 29.1583 61.8435 29.1583H57.2741V35.6105C57.2741 35.6105 57.5204 43.3071 49.7399 43.3071C41.9593 43.3071 36.7651 43.3071 36.7651 43.3071C36.7651 43.3071 29.4754 43.1886 29.4754 50.3892C29.4754 57.5897 29.4754 62.295 29.4754 62.295C29.4754 62.295 28.3686 69.5 42.6947 69.5ZM49.908 65.3368C48.6064 65.3368 47.5545 64.2793 47.5545 62.971C47.5545 61.6626 48.6064 60.6052 49.908 60.6052C51.2095 60.6052 52.2614 61.6626 52.2614 62.971C52.2615 64.2793 51.2095 65.3368 49.908 65.3368Z" fill="url(#paint1_linear_82_40)"/>
<defs>
<linearGradient id="paint0_linear_82_40" x1="22.4981" y1="21.8178" x2="58.4245" y2="57.9448" gradientUnits="userSpaceOnUse">
<stop stop-color="#387EB8"/>
<stop offset="1" stop-color="#366994"/>
</linearGradient>
<linearGradient id="paint1_linear_82_40" x1="37.1151" y1="37.3524" x2="65.9358" y2="64.8203" gradientUnits="userSpaceOnUse">
<stop stop-color="#FFE052"/>
<stop offset="1" stop-color="#FFC331"/>
</linearGradient>
</defs>
</svg>
