<svg width="85" height="85" viewBox="0 0 85 85" fill="none" xmlns="http://www.w3.org/2000/svg">
<rect width="85" height="85" rx="42.5" fill="#003554"/>
<g>
<path d="M42.4999 47.9096C45.5027 47.9096 47.9369 45.4877 47.9369 42.5C47.9369 39.5123 45.5027 37.0904 42.4999 37.0904C39.4972 37.0904 37.063 39.5123 37.063 42.5C37.063 45.4877 39.4972 47.9096 42.4999 47.9096Z" fill="#61DAFB"/>
<path d="M42.5001 53.5832C58.6124 53.5832 71.674 48.6211 71.674 42.5C71.674 36.3789 58.6124 31.4168 42.5001 31.4168C26.3878 31.4168 13.3262 36.3789 13.3262 42.5C13.3262 48.6211 26.3878 53.5832 42.5001 53.5832Z" stroke="#61DAFB"/>
<path d="M32.8535 48.0416C40.9096 61.9251 51.7594 70.6989 57.0872 67.6384C62.415 64.5779 60.2032 50.842 52.147 36.9584C44.0909 23.0749 33.2411 14.3011 27.9133 17.3616C22.5855 20.4221 24.7973 34.158 32.8535 48.0416Z" stroke="#61DAFB"/>
<path d="M32.8534 36.9584C24.7972 50.842 22.5854 64.5779 27.9132 67.6384C33.241 70.6989 44.0908 61.9251 52.1469 48.0416C60.2031 34.158 62.4149 20.4221 57.0871 17.3616C51.7594 14.3011 40.9095 23.0749 32.8534 36.9584Z" stroke="#61DAFB"/>
</g>
<defs>
<clipPath id="clip0_82_30">
<rect width="61" height="54" fill="white" transform="translate(12 15.5)"/>
</clipPath>
</defs>
</svg>
