<svg width="85" height="85" viewBox="0 0 85 85" fill="none" xmlns="http://www.w3.org/2000/svg">
<rect width="85" height="85" rx="42.5" fill="#3178C6"/>
<path d="M67.4453 12H17.5547C14.2108 12 11.5 14.6671 11.5 17.957V67.043C11.5 70.3329 14.2108 73 17.5547 73H67.4453C70.7892 73 73.5 70.3329 73.5 67.043V17.957C73.5 14.6671 70.7892 12 67.4453 12Z" fill="#3178C6"/>
<path fill-rule="evenodd" clip-rule="evenodd" d="M49.7992 60.5102C49.844 60.5 49.8867 60.534 49.8867 60.58V64.492C49.8867 65.6919 50.555 66.816 51.7043 67.1606C52.2376 67.3205 52.8048 67.4557 53.3984 67.5672C54.7305 67.8174 56.1836 67.9365 57.6367 67.9365C59.0898 67.9365 60.4219 67.8055 61.7539 67.5314C63.0859 67.2574 64.1758 66.8047 65.1445 66.2209C66.1254 65.5895 66.9609 64.7912 67.4453 63.7189C67.9297 62.6467 68.3051 61.4553 68.3051 59.9064C68.3051 58.8223 68.1355 57.8811 67.8086 57.0471C67.4816 56.2131 67.0094 55.4982 66.3555 54.9025C65.7379 54.2711 65.0234 53.7111 64.1758 53.2346C63.3281 52.758 62.3594 52.2576 61.2695 51.8049C60.4703 51.4832 59.8164 51.1734 59.0898 50.8637C58.4602 50.5539 57.9152 50.2441 57.5156 49.9344C57.0676 49.6127 56.7285 49.2791 56.4863 48.9336C56.2441 48.5762 56.123 48.183 56.123 47.7422C56.123 47.3371 56.2308 46.9678 56.45 46.6342C56.6692 46.3006 56.9707 46.0266 57.3582 45.7883C57.7457 45.55 58.2301 45.3713 58.8113 45.2402C59.3805 45.1092 60.0102 45.0496 60.7488 45.0496C61.2574 45.0496 61.7902 45.0865 62.323 45.1616C62.8801 45.2367 63.4492 45.3522 64.0184 45.5071C64.5875 45.662 65.1445 45.8526 65.7137 46.0909V46.0909C66.3481 46.3746 67.1668 45.9354 67.1668 45.2404V42.7704C67.1668 41.8939 66.6261 41.0961 65.778 40.875C65.2537 40.7383 64.7064 40.6257 64.1395 40.5389C63.0496 40.3721 61.8387 40.2888 60.3855 40.2888C58.9324 40.2888 57.6004 40.4436 56.2684 40.7415C54.9363 41.0393 53.8465 41.5159 52.8777 42.1712C51.8969 42.8145 51.1824 43.6009 50.577 44.6731C50.0078 45.6739 49.7293 46.8177 49.7293 48.2473C49.7293 50.0345 50.25 51.5833 51.3035 52.7747C52.3449 54.0852 53.9676 55.0384 56.0262 55.9915C56.8617 56.3251 57.6004 56.6587 58.327 56.9804C59.0535 57.302 59.659 57.6356 60.1434 57.9811C60.6641 58.3266 61.0758 58.7079 61.3543 59.113C61.657 59.518 61.8145 59.9946 61.8145 60.5427C61.8145 60.9239 61.72 61.2813 61.5359 61.6149C61.3519 61.9485 61.0637 62.2345 60.6762 62.4727C60.2887 62.711 59.8164 62.9016 59.223 63.0446C58.6539 63.1757 58.0121 63.2472 57.1645 63.2472C55.8324 63.2472 54.5004 63.0208 53.2895 62.568C52.0035 62.131 50.8305 61.483 49.7703 60.6347C49.7238 60.5975 49.7411 60.5234 49.7992 60.5102V60.5102ZM39.7148 49.7109C39.7148 47.5708 41.4497 45.8359 43.5898 45.8359H45.0225C46.3714 45.8359 47.4648 44.7424 47.4648 43.3936V43.3936C47.4648 42.0447 46.3714 40.9512 45.0225 40.9512H28.2314C26.8826 40.9512 25.7891 42.0447 25.7891 43.3936V43.3936C25.7891 44.7424 26.8826 45.8359 28.2314 45.8359H29.6641C31.8042 45.8359 33.5391 47.5708 33.5391 49.7109V64.5508C33.5391 66.2562 34.9216 67.6387 36.627 67.6387V67.6387C38.3323 67.6387 39.7148 66.2562 39.7148 64.5508V49.7109Z" fill="white"/>
</svg>
